<mxfile host="app.diagrams.net" modified="2023-10-15T00:45:33.669Z" agent="Mozilla/5.0 (Windows NT 10.0; Win64; x64) AppleWebKit/537.36 (KHTML, like Gecko) Chrome/118.0.0.0 Safari/537.36" version="22.0.4" etag="YJVrHY9XiPq7mU2Aa5L5" type="github">
  <diagram name="Page-1" id="EuYeO1fyy3BQCMRsQ2vp">
    <mxGraphModel>
      <root>
        <mxCell id="0" />
        <mxCell id="1" parent="0" />
      </root>
    </mxGraphModel>
  </diagram>
</mxfile>
